<?xml version="1.0" standalone="no"?>
<!DOCTYPE svg PUBLIC "-//W3C//DTD SVG 1.1//EN" "http://www.w3.org/Graphics/SVG/1.1/DTD/svg11.dtd" >
<svg xmlns="http://www.w3.org/2000/svg">
<metadata>Generated by IcoMoon</metadata>
<defs>
<font id="movietripfunc" horiz-adv-x="1024">
<font-face units-per-em="1024" ascent="960" descent="-64" />
<missing-glyph horiz-adv-x="1024" />
<glyph unicode="&#x20;" horiz-adv-x="512" d="" />
<glyph unicode="&#xe900;" glyph-name="close, delete, x" d="M587.453 448l393.432 393.432c21.558 21.558 21.558 53.895 0 75.453s-53.895 21.558-75.453 0l-393.432-393.432-393.432 393.432c-21.558 21.558-53.895 21.558-75.453 0s-21.558-53.895 0-75.453l393.432-393.432-393.432-393.432c-21.558-21.558-21.558-53.895 0-75.453 10.779-10.779 26.947-16.168 37.726-16.168s26.947 5.389 37.726 16.168l393.432 393.432 393.432-393.432c10.779-10.779 26.947-16.168 37.726-16.168s26.947 5.389 37.726 16.168c21.558 21.558 21.558 53.895 0 75.453l-393.432 393.432z" />
<glyph unicode="&#xe901;" glyph-name="edit, pencil" d="M988.16 532.48c25.6 20.48 35.84 56.32 35.84 87.040s-15.36 61.44-35.84 87.040c0 0 0 0 0 0l-194.56 184.32c0 0 0 0 0 0-51.2 46.080-128 46.080-174.080 0 0 0 0 0 0 0l-599.040-568.32c0 0 0 0 0 0-5.12-5.12-5.12-5.12-10.24-10.24 0 0-5.12-5.12-5.12-5.12s0-5.12 0-5.12 0-10.24-5.12-10.24c0 0 0 0 0 0v-281.6c0-30.72 20.48-51.2 51.2-51.2h302.080c5.12 0 15.36 0 20.48 5.12 5.12 0 5.12 5.12 10.24 5.12 0 0 5.12 0 5.12 5.12v0c0 0 0 0 0 0l599.040 558.080c0-5.12 0 0 0 0zM721.92 814.080c0 0 0 0 0 0v0l194.56-184.32c0 0 0 0 0 0 5.12-5.12 5.12-10.24 5.12-10.24 0-5.12 0-10.24-5.12-15.36 0 0 0 0 0 0l-71.68-71.68-225.28 215.040 71.68 66.56c0 0 0 0 0 0 5.12 5.12 20.48 5.12 30.72 0zM199.68 51.2l-97.28 92.16v81.92c97.28-20.48 168.96-87.040 189.44-174.080h-92.16zM542.72 675.84l76.8-71.68-358.4-337.92c-30.72 20.48-61.44 35.84-97.28 51.2l378.88 358.4zM332.8 194.56l358.4 337.92 76.8-71.68-384-358.4c-10.24 35.84-25.6 66.56-51.2 92.16z" />
<glyph unicode="&#xe902;" glyph-name="spinner, loader" d="M103.441 185.081c-2.884 0-6.729 1.923-8.652 4.807-48.066 77.867-73.060 166.308-73.060 258.594 0 270.13 220.141 490.271 490.271 490.271 91.325 0 180.727-24.994 258.594-73.060 4.807-2.884 5.768-8.652 2.884-13.458s-8.652-5.768-13.458-2.884c-74.021 46.143-160.54 70.176-248.020 70.176-259.555 0-471.045-211.49-471.045-471.045 0-88.441 24.033-173.998 70.176-248.020 2.884-4.807 0.961-10.574-2.884-13.458-0.961-1.923-2.884-1.923-4.807-1.923zM512-42.751c-116.319 0-228.793 41.337-317.234 116.319-3.845 3.845-4.807 9.613-0.961 13.458s9.613 4.807 13.458 0.961c84.596-72.099 193.225-111.513 304.737-111.513 259.555 0 471.045 211.49 471.045 471.045 0 111.513-39.414 220.141-111.513 304.737-3.845 3.845-2.884 10.574 0.961 13.458 3.845 3.845 10.574 2.884 13.458-0.961 74.983-88.441 116.319-200.915 116.319-317.234 0-271.091-220.141-490.271-490.271-490.271zM290.897 69.723h-89.402c-5.768 0-9.613 3.845-9.613 9.613s3.845 9.613 9.613 9.613h89.402c5.768 0 9.613-3.845 9.613-9.613s-3.845-9.613-9.613-9.613zM764.826 846.466h-89.402c-5.768 0-9.613 3.845-9.613 9.613s3.845 9.613 9.613 9.613h89.402c5.768 0 9.613-3.845 9.613-9.613 0-6.729-3.845-9.613-9.613-9.613z" />
<glyph unicode="&#xe903;" glyph-name="location" d="M512-48.779c-8.303 0-13.838 2.768-19.373 8.303l-273.989 273.989c-160.519 163.286-160.519 428.973 0 589.492 77.492 80.259 182.659 121.773 293.362 121.773s215.87-44.281 293.362-121.773c160.519-163.286 160.519-428.973 0-589.492l-273.989-276.757c-5.535-2.768-11.070-5.535-19.373-5.535zM512 892.194c-96.865 0-185.427-38.746-254.616-105.168-141.146-141.146-141.146-370.854 0-512l254.616-254.616 254.616 254.616c141.146 141.146 141.146 370.854 0 512-69.189 66.422-157.751 105.168-254.616 105.168zM512 352.518c-96.865 0-177.124 80.259-177.124 177.124s80.259 177.124 177.124 177.124 177.124-80.259 177.124-177.124-80.259-177.124-177.124-177.124zM512 651.415c-66.422 0-121.773-55.351-121.773-121.773s55.351-121.773 121.773-121.773 121.773 55.351 121.773 121.773-55.351 121.773-121.773 121.773z" />
<glyph unicode="&#xe904;" glyph-name="movie" d="M910.222 960h-238.933c-17.066 0-28.445-11.377-28.445-28.445 0-71.111-59.733-128-130.844-128s-130.844 56.888-130.844 128c0 17.066-11.377 28.445-28.445 28.445h-238.933c-17.066 0-28.445-11.377-28.445-28.445v-967.11c0-17.066 11.377-28.445 28.445-28.445h238.933c17.066 0 28.445 11.377 28.445 28.445 0 71.111 59.733 128 130.844 128s130.844-56.888 130.844-128c0-17.066 11.377-28.445 28.445-28.445h238.933c17.066 0 28.445 11.377 28.445 28.445v967.11c0 17.066-11.377 28.445-28.445 28.445zM512.001 149.334c-93.867 0-170.666-68.267-184.889-156.444h-184.889v534.755h113.778c17.066 0 28.445 11.377 28.445 28.445s-11.377 28.445-28.445 28.445h-113.778v318.578h184.889c14.222-88.178 91.022-156.444 184.889-156.444s170.666 68.267 184.889 156.444h184.889v-318.578h-113.778c-17.066 0-28.445-11.377-28.445-28.445s11.377-28.445 28.445-28.445h113.778v-534.755h-184.889c-14.222 88.178-91.022 156.444-184.889 156.444zM597.334 584.534h-170.666c-17.066 0-28.445-11.377-28.445-28.445s11.377-28.445 28.445-28.445h170.666c17.066 0 28.445 11.377 28.445 28.445s-11.377 28.445-28.445 28.445z" />
<glyph unicode="&#xe905;" glyph-name="photo, camera" d="M503.917 423.747c-16.168 0-26.947 10.779-26.947 26.947s10.779 26.947 26.947 26.947c53.895 0 97.011-43.116 97.011-97.011 0-16.168-10.779-26.947-26.947-26.947s-26.947 10.779-26.947 26.947c0 24.253-18.863 43.116-43.116 43.116zM886.57 561.179c16.168 0 26.947 13.474 26.947 29.642s-13.474 29.642-26.947 29.642c-16.168 0-26.947-13.474-26.947-29.642-2.694-16.168 10.779-29.642 26.947-29.642zM1024.001 620.463v-479.663c0-45.811-37.727-83.537-83.537-83.537h-856.927c-45.811 0-83.537 37.727-83.537 83.537v479.663c0 45.811 37.727 83.537 83.537 83.537h167.074c26.947 0 51.2 24.253 51.2 51.2 0 45.811 37.727 83.537 83.537 83.537 0 0 2.694 0 2.694 0h242.526c0 0 2.694 0 2.694 0 45.811 0 83.537-37.727 83.537-83.537 0-29.642 21.558-51.2 51.2-51.2h180.547c37.727 0 75.452-37.727 75.452-83.537zM53.895 280.926h272.169c-16.168 29.642-24.253 64.674-24.253 99.705s8.084 70.063 24.253 99.705h-272.169v-72.758h110.485c16.168 0 26.947-10.779 26.947-26.947s-10.779-26.947-26.947-26.947h-110.485v-72.758zM503.917 227.032c83.537 0 150.906 70.063 150.906 153.6s-67.368 153.6-150.906 153.6-150.906-70.063-150.906-153.6 67.368-153.6 150.906-153.6zM711.412 380.632c0-35.031-8.084-70.063-24.253-99.705h285.642v72.758h-113.179c-16.168 0-26.947 10.779-26.947 26.947s10.779 26.947 26.947 26.947h113.179v72.758h-285.642c13.474-29.642 24.253-64.674 24.253-99.705zM339.538 704h331.453c-8.084 16.168-13.474 32.337-13.474 51.2 0 16.168-13.474 29.642-26.947 29.642 0 0 0 0 0 0h-245.221c0 0 0 0 0 0-16.168 0-26.947-13.474-26.947-29.642-5.39-18.863-10.779-35.031-18.863-51.2zM53.895 620.463v-86.232h312.59c37.727 35.031 86.232 53.895 137.432 53.895 53.895 0 102.4-21.558 137.432-53.895h326.063v86.232c0 16.168-13.474 29.642-29.642 29.642h-856.927c-13.474 0-26.947-13.474-26.947-29.642zM970.107 140.8v86.232h-326.063c-37.727-35.031-86.232-53.895-137.432-53.895-53.895 0-102.4 21.558-137.432 53.895h-312.59v-86.232c0-16.168 13.474-29.642 29.642-29.642h856.927c13.474 0 26.947 13.474 26.947 29.642z" />
<glyph unicode="&#xe906;" glyph-name="profile, user" d="M1013.961 448c0 277.082-224.878 501.961-501.961 501.961s-501.961-224.878-501.961-501.961c0-188.737 104.408-353.38 257.004-437.71 0 0 2.008 0 2.008-2.008 72.282-40.157 154.604-62.243 242.949-62.243 80.314 0 158.62 20.078 224.878 54.212 0 0 2.008 0 2.008 2.008 164.643 82.322 275.075 250.98 275.075 445.741zM50.196 448c0 254.996 206.808 461.804 461.804 461.804s461.804-206.808 461.804-461.804c0-166.651-88.345-313.224-222.871-395.545v124.486c0 0 0 0 0 0 0 60.235-36.141 108.424-90.353 124.486 80.314 78.306 104.408 216.847 104.408 309.208 0 142.557-114.447 257.004-257.004 257.004s-257.004-114.447-257.004-257.004c0-112.439 30.118-238.933 104.408-309.208-56.22-18.071-96.376-70.275-98.384-132.518 0 0 0 0 0 0v-106.416c-124.486 82.322-206.808 224.878-206.808 385.506zM291.137 612.643c0 118.463 96.376 216.847 216.847 216.847 118.463 0 216.847-96.376 216.847-216.847 0-122.478-46.18-329.286-216.847-329.286-210.824 0-216.847 295.153-216.847 329.286zM435.702-7.78c-12.047 22.086-20.078 46.18-20.078 72.282 0 12.047-8.031 20.078-20.078 20.078s-20.078-8.031-20.078-20.078c0-22.086 4.016-42.165 10.039-62.243-32.125 8.031-62.243 20.078-90.353 36.141v128.502c0 56.22 44.173 100.392 100.392 102.4 30.118-18.071 66.259-28.11 108.424-28.11s78.306 10.039 108.424 28.11c58.227-2.008 94.369-38.149 94.369-94.369v-144.565c-28.11-14.055-60.235-24.094-90.353-32.125 8.031 20.078 12.047 42.165 12.047 66.259 0 12.047-8.031 20.078-20.078 20.078s-20.078-8.031-20.078-20.078c0-26.102-8.031-52.204-20.078-74.29-20.078-2.008-38.149-4.016-58.227-4.016-24.094 0-48.188 2.008-74.29 6.024z" />
<glyph unicode="&#xe907;" glyph-name="editors-choice" horiz-adv-x="479" d="M173.663 507.535l-11.207-67.24c-1.401-5.603 1.401-11.207 5.603-14.009s9.806-2.802 15.409-1.401l56.033 30.818 56.033-30.818c2.802-1.401 4.203-1.401 7.004-1.401s5.603 1.401 8.405 2.802c4.203 2.802 7.004 8.405 5.603 14.009l-11.207 67.24 46.227 46.227c4.203 4.203 5.603 9.806 2.802 14.009s-5.603 8.405-11.207 9.806l-63.037 9.806-28.016 60.235c-2.802 5.603-7.004 8.405-12.608 8.405s-9.806-2.802-12.608-8.405l-28.016-60.235-63.037-9.806c-5.603-1.401-9.806-4.203-11.207-9.806s0-9.806 2.802-14.009l46.227-46.227zM210.084 560.766c4.203 1.401 8.405 4.203 11.207 8.405l18.21 39.223 18.21-39.223c1.401-4.203 5.603-7.004 11.207-8.405l43.425-7.004-32.219-32.219c-2.802-2.802-4.203-7.004-4.203-12.608l7.004-44.826-37.822 21.012c-4.203 2.802-9.806 2.802-14.009 0l-37.822-21.012 7.004 44.826c1.401 4.203 0 8.405-4.203 12.608l-29.417 32.219 43.425 7.004zM449.624 960h-420.246c-8.405 0-14.009-5.603-14.009-14.009v-994.582c0-5.603 2.802-9.806 7.004-12.608s9.806-2.802 14.009 0l203.119 121.872 203.119-121.872c1.401-1.401 4.203-1.401 7.004-1.401s4.203 0 7.004 1.401c4.203 2.802 7.004 7.004 7.004 12.608v994.582c0 8.405-5.603 14.009-14.009 14.009zM43.387 931.983h392.23v-392.23c0-107.863-88.252-196.115-196.115-196.115s-196.115 88.252-196.115 196.115v392.23zM435.616-23.375l-189.11 113.466c-1.401 1.401-4.203 1.401-7.004 1.401s-5.603 0-7.004-1.401l-189.11-113.466v455.267c37.822-68.641 112.066-116.268 196.115-116.268s158.292 46.227 196.115 116.268v-455.267z" />
<glyph unicode="&#xe908;" glyph-name="editors-choice-color" horiz-adv-x="479" d="M18.064 971.74c0 0 0-417.517 0-427.844 0-122.452 98.846-221.299 221.299-221.299s221.299 98.846 221.299 221.299c0 4.426 0 427.844 0 427.844h-442.597zM305.753 436.197l-66.389 36.883-66.389-36.883 13.278 78.192-53.111 54.587 73.767 11.803 32.457 70.816 32.457-70.816 73.767-11.803-53.111-54.587 13.278-78.192z" />
<glyph unicode="&#xe909;" glyph-name="facebook" d="M928 960h-832c-52.8 0-96-43.2-96-96v-832c0-52.8 43.2-96 96-96h416v448h-128v128h128v64c0 105.8 86.2 192 192 192h128v-128h-128c-35.2 0-64-28.8-64-64v-64h192l-32-128h-160v-448h288c52.8 0 96 43.2 96 96v832c0 52.8-43.2 96-96 96z" />
<glyph unicode="&#xe90a;" glyph-name="facebook-f" d="M608 768h160v192h-160c-123.514 0-224-100.486-224-224v-96h-128v-192h128v-512h192v512h160l32 192h-192v96c0 17.346 14.654 32 32 32z" />
<glyph unicode="&#xe90b;" glyph-name="google" d="M522.2 521.2v-175.6h290.4c-11.8-75.4-87.8-220.8-290.4-220.8-174.8 0-317.4 144.8-317.4 323.2s142.6 323.2 317.4 323.2c99.4 0 166-42.4 204-79l139 133.8c-89.2 83.6-204.8 134-343 134-283 0-512-229-512-512s229-512 512-512c295.4 0 491.6 207.8 491.6 500.2 0 33.6-3.6 59.2-8 84.8l-483.6 0.2z" />
<glyph unicode="&#xe90c;" glyph-name="gplus" d="M325.8 502.6v-111.8h184.8c-7.4-48-55.8-140.6-184.8-140.6-111.2 0-202 92.2-202 205.8s90.8 205.8 202 205.8c63.4 0 105.6-27 129.8-50.2l88.4 85.2c-56.8 53-130.4 85.2-218.2 85.2-180.2-0.2-325.8-145.8-325.8-326s145.6-325.8 325.8-325.8c188 0 312.8 132.2 312.8 318.4 0 21.4-2.4 37.8-5.2 54h-307.6zM1024 512h-96v96h-96v-96h-96v-96h96v-96h96v96h96z" />
<glyph unicode="&#xe90d;" glyph-name="instagram" d="M512 867.8c136.8 0 153-0.6 206.8-3 50-2.2 77-10.6 95-17.6 23.8-9.2 41-20.4 58.8-38.2 18-18 29-35 38.4-58.8 7-18 15.4-45.2 17.6-95 2.4-54 3-70.2 3-206.8s-0.6-153-3-206.8c-2.2-50-10.6-77-17.6-95-9.2-23.8-20.4-41-38.2-58.8-18-18-35-29-58.8-38.4-18-7-45.2-15.4-95-17.6-54-2.4-70.2-3-206.8-3s-153 0.6-206.8 3c-50 2.2-77 10.6-95 17.6-23.8 9.2-41 20.4-58.8 38.2-18 18-29 35-38.4 58.8-7 18-15.4 45.2-17.6 95-2.4 54-3 70.2-3 206.8s0.6 153 3 206.8c2.2 50 10.6 77 17.6 95 9.2 23.8 20.4 41 38.2 58.8 18 18 35 29 58.8 38.4 18 7 45.2 15.4 95 17.6 53.8 2.4 70 3 206.8 3zM512 960c-139 0-156.4-0.6-211-3-54.4-2.4-91.8-11.2-124.2-23.8-33.8-13.2-62.4-30.6-90.8-59.2-28.6-28.4-46-57-59.2-90.6-12.6-32.6-21.4-69.8-23.8-124.2-2.4-54.8-3-72.2-3-211.2s0.6-156.4 3-211c2.4-54.4 11.2-91.8 23.8-124.2 13.2-33.8 30.6-62.4 59.2-90.8 28.4-28.4 57-46 90.6-59 32.6-12.6 69.8-21.4 124.2-23.8 54.6-2.4 72-3 211-3s156.4 0.6 211 3c54.4 2.4 91.8 11.2 124.2 23.8 33.6 13 62.2 30.6 90.6 59s46 57 59 90.6c12.6 32.6 21.4 69.8 23.8 124.2 2.4 54.6 3 72 3 211s-0.6 156.4-3 211c-2.4 54.4-11.2 91.8-23.8 124.2-12.6 34-30 62.6-58.6 91-28.4 28.4-57 46-90.6 59-32.6 12.6-69.8 21.4-124.2 23.8-54.8 2.6-72.2 3.2-211.2 3.2v0zM512 711c-145.2 0-263-117.8-263-263s117.8-263 263-263 263 117.8 263 263c0 145.2-117.8 263-263 263zM512 277.4c-94.2 0-170.6 76.4-170.6 170.6s76.4 170.6 170.6 170.6c94.2 0 170.6-76.4 170.6-170.6s-76.4-170.6-170.6-170.6zM846.8 721.4c0-33.91-27.49-61.4-61.4-61.4s-61.4 27.49-61.4 61.4c0 33.91 27.49 61.4 61.4 61.4s61.4-27.49 61.4-61.4z" />
<glyph unicode="&#xe90e;" glyph-name="pinterest" d="M512 891.6c-245 0-443.6-198.6-443.6-443.6 0-188 117-348.4 282-413-3.8 35-7.4 89 1.6 127.2 8 34.6 52 220.4 52 220.4s-13.2 26.6-13.2 65.8c0 61.6 35.8 107.8 80.2 107.8 37.8 0 56.2-28.4 56.2-62.4 0-38-24.2-95-36.8-147.6-10.6-44.2 22-80.2 65.6-80.2 78.8 0 139.4 83.2 139.4 203.2 0 106.2-76.4 180.4-185.2 180.4-126.2 0-200.2-94.6-200.2-192.6 0-38.2 14.6-79 33-101.2 3.6-4.4 4.2-8.2 3-12.8-3.4-14-10.8-44.2-12.4-50.4-2-8.2-6.4-9.8-14.8-6-55.4 25.8-90 106.8-90 171.8 0 140 101.6 268.4 293 268.4 153.8 0 273.4-109.6 273.4-256.2 0-152.8-96.4-276-230.2-276-45 0-87.2 23.4-101.6 51 0 0-22.2-84.6-27.6-105.4-10-38.6-37-86.8-55.2-116.2 41.6-12.8 85.6-19.8 131.4-19.8 245 0 443.6 198.6 443.6 443.6 0 245.2-198.6 443.8-443.6 443.8z" />
<glyph unicode="&#xe90f;" glyph-name="pinterest-outline" d="M512 960c-282.4 0-512-229.6-512-512s229.6-512 512-512 512 229.6 512 512-229.6 512-512 512zM512 4.4c-45.8 0-89.8 7-131.4 19.8 18 29.4 45.2 77.8 55.2 116.2 5.4 20.8 27.6 105.4 27.6 105.4 14.4-27.6 56.8-51 101.6-51 133.8 0 230.2 123 230.2 276 0 146.6-119.6 256.2-273.4 256.2-191.4 0-293-128.6-293-268.4 0-65 34.6-146 90-171.8 8.4-4 12.8-2.2 14.8 6 1.4 6.2 9 36.2 12.4 50.4 1 4.4 0.6 8.4-3 12.8-18.4 22.2-33 63.2-33 101.2 0 97.8 74 192.6 200.2 192.6 109 0 185.2-74.2 185.2-180.4 0-120-60.6-203.2-139.4-203.2-43.6 0-76.2 36-65.6 80.2 12.6 52.8 36.8 109.6 36.8 147.6 0 34-18.2 62.4-56.2 62.4-44.6 0-80.2-46-80.2-107.8 0-39.2 13.2-65.8 13.2-65.8s-44-185.8-52-220.4c-9-38.4-5.4-92.2-1.6-127.2-165 64.4-282 224.8-282 412.8 0 245 198.6 443.6 443.6 443.6s443.6-198.6 443.6-443.6c0-245-198.6-443.6-443.6-443.6z" />
<glyph unicode="&#xe910;" glyph-name="search" d="M1014.88 33.504c12.192-12.192 12.192-31.968 0-44.192l-44.192-44.192c-12.224-12.192-32-12.192-44.192 0l-309.376 309.376c-3.36 3.36-5.6 7.328-7.104 11.552-63.456-46.368-141.376-74.048-226.016-74.048-212.064 0-384 171.936-384 384s171.936 384 384 384c212.064 0 384-171.936 384-384 0-84.64-27.68-162.56-74.048-226.016 4.224-1.504 8.192-3.712 11.552-7.104l309.376-309.376zM384 832c-141.376 0-256-114.624-256-256s114.624-256 256-256 256 114.624 256 256c0 141.376-114.624 256-256 256z" />
<glyph unicode="&#xe911;" glyph-name="twitter" d="M1024 733.6c-37.6-16.8-78.2-28-120.6-33 43.4 26 76.6 67.2 92.4 116.2-40.6-24-85.6-41.6-133.4-51-38.4 40.8-93 66.2-153.4 66.2-116 0-210-94-210-210 0-16.4 1.8-32.4 5.4-47.8-174.6 8.8-329.4 92.4-433 219.6-18-31-28.4-67.2-28.4-105.6 0-72.8 37-137.2 93.4-174.8-34.4 1-66.8 10.6-95.2 26.2 0-0.8 0-1.8 0-2.6 0-101.8 72.4-186.8 168.6-206-17.6-4.8-36.2-7.4-55.4-7.4-13.6 0-26.6 1.4-39.6 3.8 26.8-83.4 104.4-144.2 196.2-146-72-56.4-162.4-90-261-90-17 0-33.6 1-50.2 3 93.2-59.8 203.6-94.4 322.2-94.4 386.4 0 597.8 320.2 597.8 597.8 0 9.2-0.2 18.2-0.6 27.2 41 29.4 76.6 66.4 104.8 108.6z" />
<glyph unicode="&#xe912;" glyph-name="youtube" d="M1013.8 652.8c0 0-10 70.6-40.8 101.6-39 40.8-82.6 41-102.6 43.4-143.2 10.4-358.2 10.4-358.2 10.4h-0.4c0 0-215 0-358.2-10.4-20-2.4-63.6-2.6-102.6-43.4-30.8-31-40.6-101.6-40.6-101.6s-10.2-82.8-10.2-165.8v-77.6c0-82.8 10.2-165.8 10.2-165.8s10-70.6 40.6-101.6c39-40.8 90.2-39.4 113-43.8 82-7.8 348.2-10.2 348.2-10.2s215.2 0.4 358.4 10.6c20 2.4 63.6 2.6 102.6 43.4 30.8 31 40.8 101.6 40.8 101.6s10.2 82.8 10.2 165.8v77.6c-0.2 82.8-10.4 165.8-10.4 165.8zM406.2 315.2v287.8l276.6-144.4-276.6-143.4z" />
<glyph unicode="&#xe913;" glyph-name="share" d="M864 256c-45.16 0-85.92-18.738-115.012-48.83l-431.004 215.502c1.314 8.252 2.016 16.706 2.016 25.328s-0.702 17.076-2.016 25.326l431.004 215.502c29.092-30.090 69.852-48.828 115.012-48.828 88.366 0 160 71.634 160 160s-71.634 160-160 160-160-71.634-160-160c0-8.622 0.704-17.076 2.016-25.326l-431.004-215.504c-29.092 30.090-69.852 48.83-115.012 48.83-88.366 0-160-71.636-160-160 0-88.368 71.634-160 160-160 45.16 0 85.92 18.738 115.012 48.828l431.004-215.502c-1.312-8.25-2.016-16.704-2.016-25.326 0-88.368 71.634-160 160-160s160 71.632 160 160c0 88.364-71.634 160-160 160z" />
<glyph unicode="&#xe914;" glyph-name="arrow-down" d="M511.999 960q21.2 0 36.2-15t15-36.2v-797.999l270.8 271.2q14.8 14.8 36.4 14.8 22 0 36.6-14.6t14.6-36.6q0-21.6-14.8-36.4l-358.4-358.4q-14.8-14.8-36.4-14.8t-36.4 14.8l-358.4 358.4q-14.8 14.8-14.8 36.4 0 22 14.6 36.6t36.6 14.6q21.6 0 36.4-14.8l270.8-271.2v797.999q0 21.2 15 36.2t36.2 15z" />
<glyph unicode="&#xe915;" glyph-name="arrow-left" d="M409.6 857.601q21.2 0 36.2-15t15-36.2q0-21.6-15.2-36.4l-270.801-270.801h798q21.2 0 36.2-15t15-36.2-15-36.2-36.2-15h-798l270.801-270.801q15.2-14.8 15.2-36.4 0-21.2-15-36.2t-36.2-15q-21.6 0-36.4 14.8l-358.401 358.401q-14.8 15.6-14.8 36.4t14.8 36.4l358.401 358.401q15.2 14.8 36.4 14.8z" />
<glyph unicode="&#xe916;" glyph-name="arrow-right" d="M614.399 857.6q21.6 0 36.4-14.8l358.4-358.4q14.8-14.8 14.8-36.4t-14.8-36.4l-358.4-358.4q-14.8-14.8-36.4-14.8-22 0-36.6 14.6t-14.6 36.6q0 21.6 14.8 36.4l271.2 270.8h-797.999q-21.2 0-36.2 15t-15 36.2 15 36.2 36.2 15h797.999l-271.2 270.8q-14.8 14.8-14.8 36.4 0 22 14.6 36.6t36.6 14.6z" />
<glyph unicode="&#xe917;" glyph-name="arrow-up" d="M512 960q21.6 0 36.4-14.8l358.4-358.4q14.8-14.8 14.8-36.4 0-22-14.6-36.6t-36.6-14.6q-21.6 0-36.4 14.8l-270.8 271.2v-798q0-21.2-15-36.2t-36.2-15-36.2 15-15 36.2v798l-270.8-271.2q-14.8-14.8-36.4-14.8-22 0-36.6 14.6t-14.6 36.6q0 21.6 14.8 36.4l358.4 358.4q14.8 14.8 36.4 14.8z" />
<glyph unicode="&#xe918;" glyph-name="chevron-down" d="M120 764l392-392 392 392 120-120-512-512-512 512z" />
<glyph unicode="&#xe919;" glyph-name="chevron-left" d="M828 56l-120-120-512 512 512 512 120-120-392-392z" />
<glyph unicode="&#xe91a;" glyph-name="chevron-right" d="M196 56l392 392-392 392 120 120 512-512-512-512z" />
<glyph unicode="&#xe91b;" glyph-name="chevron-up" d="M120 132l-120 120 512 512 512-512-120-120-392 392z" />
<glyph unicode="&#xe91c;" glyph-name="warning" d="M979.988 155.471l-408.299 660.66c-32.891 53.123-86.369 53.241-119.26 0v0l-408.299-660.66c-44.131-71.343-12.068-128.843 71.461-128.843h792.935c83.411 0 115.474 57.618 71.461 128.843zM512.059 140.208c-20.941 0-37.86 16.919-37.86 37.86s16.919 37.86 37.86 37.86 37.86-16.919 37.86-37.86-16.919-37.86-37.86-37.86zM549.919 329.391c0-20.586-16.919-37.742-37.86-37.742-21.060 0-37.86 16.919-37.86 37.742v227.398c0 20.586 16.919 37.742 37.86 37.742v0c21.060 0 37.86-16.919 37.86-37.742v-227.398z" />
<glyph unicode="&#xe91d;" glyph-name="warning-outline" d="M452.429 816.065l-408.313-660.601c-44.116-71.375-11.961-128.82 71.504-128.82h792.902c83.446 0 115.478 57.675 71.504 128.82l-408.313 660.601c-32.862 53.166-86.346 53.292-119.285 0zM487.599 801.887c13.15 21.25 34.512 21.182 47.621 0l416.647-673.231c21.927-35.43 5.525-64.152-35.65-64.152h-809.586c-41.616 0-57.695 28.534-35.653 64.152l416.62 673.231zM512.086 594.53c-20.909 0-37.859-17.151-37.859-37.747v-227.379c0-20.847 16.805-37.747 37.859-37.747 20.909 0 37.859 17.151 37.859 37.747v227.379c0 20.847-16.805 37.747-37.859 37.747v0zM512.086 140.222c20.909 0 37.859 16.95 37.859 37.859s-16.95 37.859-37.859 37.859c-20.909 0-37.859-16.95-37.859-37.859s16.95-37.859 37.859-37.859v0z" />
</font>
</defs>
</svg>
